<mxfile host="app.diagrams.net" modified="2024-06-18T11:20:50.878Z" agent="Mozilla/5.0 (Macintosh; Intel Mac OS X 10_15_7) AppleWebKit/605.1.15 (KHTML, like Gecko) Version/17.4.1 Safari/605.1.15" version="24.5.5" etag="utrlkG_8ynV6J-xmjk1T" type="github">
  <diagram name="Page-1" id="dYzP8YeYpCgYj7WMfG4x">
    <mxGraphModel>
      <root>
        <mxCell id="0" />
        <mxCell id="1" parent="0" />
      </root>
    </mxGraphModel>
  </diagram>
</mxfile>
